<?xml version="1.0" encoding="UTF-8"?>
<svg id="Layer_2" data-name="Layer 2" xmlns="http://www.w3.org/2000/svg" viewBox="0 0 1465.66 397.65">
  <defs>
    <style>
      .cls-1 {
        fill: #000;
        stroke-width: 0px;
      }
    </style>
  </defs>
  <g id="Layer_1-2" data-name="Layer 1">
    <g>
      <path class="cls-1" d="M111.3,237.11l7.4-45.83c4.93-27.9,7.4-44.21,7.4-48.96,0-2.66-.85-4.55-2.56-5.69s-4.75-1.71-9.11-1.71c-6.26,0-10.96,1.24-14.09,3.7-3.13,2.47-5.46,6.55-6.97,12.24-4.55,16.89-9.25,31.12-14.09,42.7-4.84,11.58-9.39,20.21-13.66,25.9s-7.83,8.54-10.67,8.54c-3.98,0-5.98-3.6-5.98-10.82,0-4.55.57-10.39,1.71-17.51,1.14-7.12,2.46-14.56,3.98-22.34,1.14-5.69,2.66-12.05,4.55-19.07,2.09-8.73,3.13-13.85,3.13-15.37,0-2.66-.81-4.65-2.42-5.98-1.61-1.33-4.51-1.99-8.68-1.99-7.4,0-12.81,1.24-16.22,3.7-3.42,2.47-6.08,6.55-7.97,12.24-4.37,13.28-7.5,25.86-9.39,37.72-1.9,11.86-2.85,24.91-2.85,39.14,0,11.77,2.7,21.59,8.11,29.46,5.41,7.88,12.38,11.81,20.92,11.81,7.59,0,14.8-3.56,21.63-10.67,6.83-7.12,12.14-17.51,15.94-31.17-1.71,13.09-3.23,23.15-4.55,30.17l-.85,6.55c-20.31,15.56-36.01,29.36-47.11,41.42-11.1,12.05-18.69,22.72-22.77,32.02-4.08,9.29-6.12,18.4-6.12,27.33,0,9.68,3.03,17.5,9.11,23.48,6.07,5.98,13.95,8.97,23.63,8.97,18.03,0,32.88-11.24,44.55-33.73s21.11-53.37,28.32-92.65l5.69-33.59ZM51.81,352.96c-5.88,11-11.2,16.51-15.94,16.51-2.85,0-4.89-1.05-6.12-3.13-1.24-2.09-1.85-4.75-1.85-7.97,0-7.59,3.27-16.46,9.82-26.61,6.55-10.15,17.12-21.4,31.74-33.73-5.88,25.62-11.77,43.93-17.65,54.94Z"/>
      <path class="cls-1" d="M240.31,242.85c.49-2.78-.41-5.55-2.22-7.7,0-.01-.02-.02-.03-.03-1.42-1.71-2.13-3.98-2.13-6.83,0-8.54,2.18-23.72,6.55-45.54,2.85-14.99,4.27-24.48,4.27-28.46,0-6.64-4.65-9.96-13.95-9.96-4.37,0-8.54.38-12.52,1.14-.95-4.17-2.13-7.07-3.56-8.68-1.42-1.61-4.23-2.42-8.4-2.42-13.09,0-25.48,4.13-37.15,12.38s-21.02,19.17-28.04,32.73c-7.02,13.57-10.53,27.94-10.53,43.12,0,13.85,3.51,25.05,10.53,33.59,7.02,8.54,16.41,12.81,28.18,12.81,14.99,0,27.42-7.97,37.29-23.91,2.66,7.4,6.59,13.24,11.81,17.51.05.04.1.08.15.12,6.79,5.49,16.95,1.13,17.97-7.54.48-4.12,1.06-8.23,1.78-12.31ZM201.77,213.2c-1.71,8.16-4.46,14.71-8.25,19.64-3.8,4.94-7.78,7.4-11.96,7.4s-7.45-1.42-9.82-4.27c-2.38-2.85-3.56-7.21-3.56-13.09,0-10.62,1.99-20.68,5.98-30.17,3.98-9.49,9.34-17.12,16.08-22.91,6.73-5.79,14.09-8.77,22.06-8.97l-10.53,52.38Z"/>
      <path class="cls-1" d="M352.63,137.42c-6.26,0-13.14,2.18-20.64,6.55-7.5,4.37-15.14,11.67-22.91,21.92-7.78,10.25-14.8,23.53-21.06,39.85.76-8.35,1.71-15.37,2.85-21.06s2.66-12.33,4.55-19.93c2.85-10.63,4.27-17.46,4.27-20.49,0-2.66-.76-4.46-2.28-5.41-1.52-.95-4.18-1.42-7.97-1.42-7.02,0-12.48,1.28-16.37,3.84-3.89,2.56-6.69,6.6-8.4,12.1-7.02,22.2-10.53,45.64-10.53,70.31,0,16.7,1.47,28.85,4.41,36.43,2.94,7.59,8.01,11.39,15.23,11.39,5.88,0,10.2-1.57,12.95-4.7,2.75-3.13,5.17-9.15,7.26-18.08,2.85-11.57,6.55-22.58,11.1-33.02,4.55-10.43,9.15-18.83,13.81-25.19,4.65-6.36,8.4-9.54,11.24-9.54,2.09,0,3.13,1.52,3.13,4.55,0,1.33-.19,3.89-.57,7.69-.57,2.85-.85,5.69-.85,8.54,0,4.57.72,8.65,2.15,12.23.57,1.42,1.76,2.52,3.22,2.95.09.03.18.05.26.07,1.57.32,3.29.45,5.03.55,4.55.27,17.74-7.19,19.23-9.94,1.33-2.46,2.06-4.46,2.28-4.98,1.78-4.29,2.47-8.92,2.29-13.56-.01-.32-.02-.65-.02-.99,0-1.89.76-6.64,2.28-14.23,1.71-9.49,2.56-15.46,2.56-17.93,0-12.33-6.17-18.5-18.5-18.5Z"/>
      <path class="cls-1" d="M381.57,257.6c-2.94-7.59-4.41-19.73-4.41-36.43,0-24.67,3.51-48.11,10.53-70.31,1.71-5.5,4.51-9.54,8.4-12.1,3.89-2.56,9.34-3.84,16.37-3.84,3.79,0,6.45.48,7.97,1.42,1.52.95,2.28,2.75,2.28,5.41,0,3.04-1.42,9.87-4.27,20.49-1.9,7.59-3.42,14.23-4.55,19.93s-2.09,12.72-2.85,21.06c6.26-16.32,13.28-29.6,21.06-39.85,7.78-10.25,15.42-17.55,22.91-21.92,7.49-4.36,14.37-6.55,20.64-6.55s10.67,1.57,13.81,4.7,4.7,7.73,4.7,13.81c0,4.94-1.05,14.23-3.13,27.9-1.9,11.58-3.42,22.54-4.55,32.88-1.14,10.35-1.71,21.87-1.71,34.58,0,7.21-1.47,12.38-4.41,15.51-2.94,3.13-7.73,4.7-14.37,4.7-6.26,0-10.82-1.61-13.66-4.84-2.85-3.23-4.27-8.06-4.27-14.52,0-7.59,1.33-20.11,3.99-37.57,2.28-15.18,3.42-24.86,3.42-29.03,0-3.03-1.05-4.55-3.13-4.55-2.47,0-5.93,3.18-10.39,9.54-4.46,6.36-9.02,14.76-13.66,25.19-4.65,10.44-8.4,21.45-11.24,33.02-2.09,8.92-4.51,14.94-7.26,18.08-2.75,3.13-7.07,4.7-12.95,4.7-7.21,0-12.29-3.79-15.23-11.39Z"/>
      <path class="cls-1" d="M635.52,258.17c-10.82,7.02-22.11,10.63-33.87,10.82-2.47,36.62-8.07,67.22-16.79,91.8-8.73,24.57-21.54,36.86-38.43,36.86-10.25,0-17.83-3.7-22.77-11.1-4.93-7.4-7.4-17.65-7.4-30.74,0-18.6,4.27-40.28,12.81-65.04,8.54-24.76,21.73-52.04,39.57-81.84,0-27.7-.19-46.97-.57-57.78-.19-5.5,1.99-9.86,6.55-13.09,4.55-3.22,10.25-4.84,17.08-4.84,3.99,0,6.88.81,8.68,2.42,1.8,1.61,2.8,4.79,2.99,9.54,0,4.75.09,8.25.28,10.53,6.07-7.59,12.05-13.04,17.93-16.37,5.88-3.32,12.14-4.98,18.79-4.98,10.63,0,19.31,4.27,26.05,12.81,6.73,8.54,10.1,19.74,10.1,33.59,0,10.06-1.61,19.83-4.84,29.32-3.23,9.49-7.69,18.12-13.38,25.9-5.63,7.87-4.63,7.87-22.77,22.2ZM561.51,336.31c3.42-22.3,5.6-50.05,6.55-83.26-8.16,18.97-14.61,37.1-19.36,54.37-4.74,17.27-7.12,31.78-7.12,43.55,0,6.07.71,10.72,2.14,13.95,1.42,3.22,3.09,4.84,4.98,4.84,5.12,0,9.39-11.15,12.81-33.45ZM622,230.42c5.79-5.98,10.39-13.38,13.81-22.2,3.42-8.82,5.12-18.07,5.12-27.75,0-5.69-1.14-10.01-3.42-12.95-2.28-2.94-5.31-4.41-9.11-4.41-6.83,0-15.09,7.21-24.76,21.63-.19,8.35-.28,20.59-.28,36.72,0,8.73-.1,15.47-.28,20.21,6.83-1.52,13.14-5.27,18.93-11.24Z"/>
      <path class="cls-1" d="M794.33,246.47s0,0,0-.01c-1.75-4.01-3.77-7.91-5.55-11.88-1.59-3.55-5.87-4.92-9.28-3.05-.02.01-.05.02-.07.04-10.92,5.98-20.64,8.97-29.18,8.97-13.28,0-22.3-4.36-27.04-13.09,22.39-5.5,38.29-12.95,47.68-22.34,9.39-9.39,14.09-20.64,14.09-33.73,0-11.19-3.32-20.07-9.96-26.61-6.64-6.55-15.47-9.82-26.47-9.82-12.34,0-23.39,3.32-33.16,9.96-9.78,6.64-17.41,15.61-22.91,26.9-5.51,11.29-8.25,23.48-8.25,36.58,0,18.79,5.5,33.59,16.51,44.4,11,10.82,26.47,16.22,46.4,16.22,14.61,0,28.32-3.6,41.13-10.82.74-.41,1.46-.83,2.18-1.25,3.59-2.1,5.22-6.44,3.92-10.39,0-.02-.01-.04-.02-.07ZM718.65,204.66c0-11.57,2.42-21.44,7.26-29.6,4.84-8.16,10.77-12.24,17.79-12.24,3.42,0,6.12,1.09,8.11,3.27,1.99,2.18,2.99,5.08,2.99,8.68,0,7.02-3.23,13.19-9.68,18.5-6.45,5.31-15.28,9.3-26.47,11.96v-.57Z"/>
      <path class="cls-1" d="M911.92,249.43c-.18-2.11-.32-4.2-.37-6.27-.05-2.31-.08-4.61-.09-6.92-.02-6.55-7.58-10.11-12.72-6.05-.04.03-.08.06-.12.09-6.26,4.94-13.48,7.4-21.63,7.4-10.06,0-17.41-3.99-22.06-11.96-4.65-7.97-6.97-21.82-6.97-41.56,0-5.31.19-12.71.57-22.2h34.73c21.44,0,32.17-6.55,32.17-19.64,0-3.6-.67-6.07-1.99-7.4-1.33-1.33-3.51-1.99-6.55-1.99h-31.88c24.67-21.82,37-47.44,37-76.85,0-10.62-2.28-19.45-6.83-26.47-4.55-7.02-10.82-10.53-18.79-10.53-10.82,0-20.92,5.12-30.31,15.37-9.39,10.25-17.41,24.01-24.05,41.27-6.64,17.27-11.58,36.34-14.8,57.21h-16.22c-8.54,0-12.81,5.31-12.81,15.94,0,4.55,1,7.88,2.99,9.96,1.99,2.09,5.83,3.13,11.53,3.13h11.1c-.57,8.54-.85,16.99-.85,25.33,0,54.47,19.36,81.69,58.07,81.69,12.52,0,23.63-3.22,33.3-9.68,1.02-.68,2.03-1.38,3.03-2.1,2.54-1.82,4.2-4.63,4.56-7.74v-.05ZM859.2,86.67c3.13-12.62,6.45-22.49,9.96-29.6,3.51-7.12,6.69-10.67,9.54-10.67,4.17,0,6.26,5.6,6.26,16.79,0,9.87-2.8,20.83-8.4,32.88-5.6,12.05-14,22.91-25.19,32.59,2.09-15.37,4.7-29.36,7.83-41.98Z"/>
      <path class="cls-1" d="M1029.73,237.68c-1.92-1.23-4.13-.85-5.55-2.56-1.42-1.71-2.13-3.98-2.13-6.83,0-8.54,2.18-23.72,6.55-45.54,2.85-14.99,4.27-24.48,4.27-28.46,0-6.64-4.65-9.96-13.95-9.96-4.37,0-8.54.38-12.52,1.14-.95-4.17-2.13-7.07-3.56-8.68-1.42-1.61-4.22-2.42-8.4-2.42-13.09,0-25.48,4.13-37.15,12.38-11.67,8.25-21.02,19.17-28.04,32.73-7.02,13.57-10.53,27.94-10.53,43.12,0,13.85,3.51,25.05,10.53,33.59,7.02,8.54,16.41,12.81,28.18,12.81,14.99,0,27.42-7.97,37.29-23.91,2.66,7.4,6.59,13.24,11.81,17.51,5.22,4.27,10.96,6.4,17.22,6.4.02,0,.04,0,.06,0,3.51,0,6.29-3,6.17-6.51-.28-8.25,4.67-21.64-.25-24.8ZM987.89,213.2c-1.71,8.16-4.46,14.71-8.25,19.64-3.8,4.94-7.78,7.4-11.96,7.4s-7.45-1.42-9.82-4.27c-2.38-2.85-3.56-7.21-3.56-13.09,0-10.62,1.99-20.68,5.98-30.17,3.99-9.49,9.34-17.12,16.08-22.91,6.73-5.79,14.09-8.77,22.06-8.97l-10.53,52.38Z"/>
      <path class="cls-1" d="M1106.82,246.31c-1.29-5.59-6.53-9.23-12.24-8.76-1.04.09-2.09.13-3.16.13-4.94,0-8.92-1.66-11.96-4.98-3.04-3.32-5.22-8.87-6.55-16.65,21.44-29.22,38.43-58.73,50.95-88.52,12.52-29.79,18.79-55.98,18.79-78.56,0-15.75-2.61-27.85-7.83-36.29-5.22-8.44-12.38-12.67-21.49-12.67-16.13,0-30.03,10.63-41.7,31.88-11.67,21.25-20.49,46.68-26.47,76.29s-8.97,55.98-8.97,79.13,4.03,43.74,12.1,58.92c8.06,15.18,20.45,22.77,37.15,22.77,4.85,0,9.49-.52,13.93-1.54,6.53-1.51,10.56-8.1,9-14.62-.52-2.17-1.03-4.35-1.54-6.52ZM1077.75,110.44c4.17-23.34,9.01-42.88,14.52-58.64,5.5-15.75,10.43-23.63,14.8-23.63,5.31,0,7.97,7.21,7.97,21.63,0,18.41-3.98,38.76-11.96,61.06-7.97,22.3-18.69,44.55-32.17,66.75.38-21.44,2.66-43.84,6.83-67.18Z"/>
      <path class="cls-1" d="M1332.94,270.7c-7.21,39.28-16.65,70.17-28.32,92.65s-26.52,33.73-44.55,33.73c-9.68,0-17.55-2.99-23.63-8.97-6.08-5.98-9.11-13.8-9.11-23.48,0-13.48,5.31-27.94,15.94-43.41,10.62-15.47,30.55-34.49,59.78-57.07l1.71-11.1c-3.23,5.12-7.45,9.06-12.67,11.81-5.22,2.75-10.39,4.13-15.51,4.13-11.77,0-21.16-4.27-28.18-12.81-7.02-8.54-10.53-19.73-10.53-33.59,0-15.18,3.51-29.55,10.53-43.12,7.02-13.57,16.37-24.48,28.04-32.73,11.67-8.25,24.05-12.38,37.15-12.38,4.17,0,6.97.81,8.4,2.42,1.42,1.61,2.61,4.51,3.56,8.68,3.6-.76,7.78-1.14,12.52-1.14s8.11.71,10.1,2.13,2.99,4.23,2.99,8.4c0,2.28-.1,4.08-.29,5.41-.76,5.88-3.13,20.78-7.12,44.69-.76,4.55-1.57,9.54-2.42,14.94-.85,5.41-8.4,50.81-8.4,50.81ZM1279.29,352.39c5.98-11.39,11.71-29.51,17.22-54.37-14.62,12.52-25.15,23.81-31.6,33.87-6.45,10.06-9.68,18.88-9.68,26.47,0,3.22.61,5.88,1.85,7.97,1.23,2.08,3.27,3.13,6.12,3.13,4.74,0,10.11-5.69,16.08-17.08ZM1299.36,232.27c3.98-5.31,6.83-12.9,8.54-22.77l9.11-48.67c-7.78.19-14.99,3.18-21.63,8.97-6.64,5.79-11.96,13.43-15.94,22.91-3.98,9.49-5.98,19.55-5.98,30.17,0,5.88,1.18,10.25,3.56,13.09,2.37,2.85,5.64,4.27,9.82,4.27s8.54-2.65,12.52-7.97Z"/>
      <path class="cls-1" d="M1369.59,253.19c-10.15-10.53-15.23-24.43-15.23-41.7,0-15.37,3.03-28.84,9.11-40.42,6.07-11.57,13.95-20.49,23.62-26.76s19.83-9.39,30.46-9.39,18.55,3.09,24.34,9.25c5.79,6.17,8.68,14.09,8.68,23.77,0,7.97-1.76,14.71-5.27,20.21-3.51,5.51-8.11,8.25-13.8,8.25-3.61,0-6.5-.85-8.68-2.56-2.18-1.71-3.27-4.08-3.27-7.12,0-1.33.19-2.85.57-4.55.38-1.71.66-2.94.85-3.7.95-2.85,1.42-5.5,1.42-7.97s-.62-4.36-1.85-5.69c-1.24-1.33-2.99-1.99-5.27-1.99-4.37,0-8.45,1.95-12.24,5.84-3.8,3.89-6.83,9.16-9.11,15.8-2.28,6.65-3.42,13.95-3.42,21.92,0,10.82,2.23,19.03,6.69,24.62,4.46,5.6,10.77,8.4,18.93,8.4,6.45,0,12.38-1.9,17.79-5.69,5.41-3.79,10.77-9.39,16.08-16.79,2.28-2.85,4.84-4.27,7.68-4.27,2.46,0,4.41,1.14,5.84,3.42,1.42,2.28,2.13,5.41,2.13,9.39,0,6.83-1.61,12.72-4.84,17.65-5.12,7.97-11.86,14.28-20.21,18.93-8.35,4.65-17.93,6.97-28.75,6.97-18.03,0-32.12-5.27-42.27-15.8Z"/>
      <path class="cls-1" d="M1121.08,169.78c-.01.14-.03.27-.05.41,0-.08,0-.16.01-.24.01-.05.02-.11.04-.17Z"/>
      <path class="cls-1" d="M1189.07,210.5c3.13,5.6,4.7,11.72,4.7,18.36,0,7.97-1.85,15.51-5.55,22.63-3.7,7.12-8.88,12.86-15.52,17.22-6.64,4.36-14.23,6.55-22.77,6.55-9.87,0-17.41-2.28-22.63-6.83-5.22-4.56-7.82-9.68-7.82-15.38,0-4.93,1.8-9.2,5.4-12.8,3.61-3.61,8.92-5.41,15.94-5.41,2.47,0,5.36.24,8.69.71,3.31.47,5.83.81,7.54,1-.19-4.94-1.28-9.58-3.27-13.95-2-4.37-4.51-8.59-7.55-12.67-2.27-3.05-16.7-16.61-22.38-26.44-1.12-1.41-1.98-3.04-2.37-4.67-.46-1.89-.75-3.93-.77-5.88-.01-1.03.1-2.03.33-2.99-.01.08-.01.16-.01.24.02-.14.04-.27.05-.41-.02.06-.03.12-.04.17.19-6.3,3.14-12.68,5.92-18.4,3.79-7.79,9.77-14.71,17.74-18.34,9.01-4.12,20.25-6.02,30.02-3.67,11.32,2.73,17.28,10.67,21.38,20.97,2.71,6.81-2.99,14.84-9.43,16.61-7.52,2.06-13.82-2.59-16.55-9.27,0-.01,0-.02-.01-.03-.13-.22-.82-1.71-1-1.92-.35-.43-.55-.68-.66-.8.14.2.44.62.38.62.65.34-1.94-.09-2.49-.11-.16-.01-.31-.01-.47-.01-1.9,4.69-2.84,8.81-2.84,12.35,0,2.84.99,5.97,2.99,9.39,1.99,3.41,5.07,7.68,9.25,12.81,6.07,7.97,10.67,14.76,13.8,20.35Z"/>
      <path class="cls-1" d="M1121.08,169.78c-.01.14-.03.27-.05.41,0-.08,0-.16.01-.24.01-.05.02-.11.04-.17Z"/>
      <path class="cls-1" d="M512.2,272.53c17.37,0,17.4-27,0-27s-17.4,27,0,27h0Z"/>
      <path class="cls-1" d="M1216.2,272.53c17.37,0,17.4-27,0-27s-17.4,27,0,27h0Z"/>
    </g>
  </g>
</svg>